<svg aria-hidden="true" style="position: absolute; width: 0; height: 0; overflow: hidden;" version="1.1" xmlns="http://www.w3.org/2000/svg" xmlns:xlink="http://www.w3.org/1999/xlink">
<defs>
<symbol id="icon-group" viewBox="0 0 32 32">
<path fill="#dcc603" style="fill: var(--color1, #dcc603)" d="M25.488 32h-19.071c-3.545 0-6.417-2.88-6.417-6.436v-19.128c0-3.556 2.872-6.436 6.417-6.436h19.116c3.545 0 6.417 2.88 6.417 6.436v19.173c-0.045 3.511-2.917 6.391-6.462 6.391z"></path>
<path fill="#fff" style="fill: var(--color2, #fff)" d="M19.7 10.577c-0.224 0.090-0.135 0.36 0.090 0.315l1.212-0.045-2.423 6.481-2.289-4.186c-0.718-1.35-2.064-2.25-3.59-2.34h-0.673c-1.795 0.135-3.276 1.26-3.904 2.97l-3.68 10.262c-0.045 0.090 0.045 0.135 0.090 0.135h5.564c0.045 0 0.090-0.045 0.090-0.090l2.378-6.436 2.289 4.186c0.853 1.575 2.513 2.475 4.263 2.34s3.276-1.26 3.904-2.925l3.814-10.442 1.032-2.835c0.045-0.090-0.045-0.18-0.135-0.135l-8.032 2.745z"></path>
<path fill="#cbd6fe" style="fill: var(--color3, #cbd6fe)" d="M20.193 26.824l-10.321-19.893-7.135 18.588h4.128l2.782-7.966c0.404-1.26 2.109-1.35 2.737-0.18l3.859 7.651 3.949 1.8z"></path>
<path fill="#cbd6fe" style="fill: var(--color3, #cbd6fe)" d="M16.693 13.682l2.378 4.366c0.449 0.81 1.66 0.765 1.974-0.135l2.737-6.976h-3.366l-3.725 2.745z"></path>
</symbol>
</defs>
</svg>
